M48
;Layer_Color=9474304
;FILE_FORMAT=2:4
INCH
;TYPE=PLATED
T1F00S00C0.0150
T2F00S00C0.0400
%
T01
X001030Y011960
X002000Y011970
X002505Y012004
X002977Y012023
X004000Y012000
X005000
X006000
X006505Y012000
X007000Y012000
X008000
T02
X001000Y010000
X002000
X003000
X004000
X005000
X006000
X007000
X008000
X009000
Y014000
X008000
X007000
X006000
X005000
X004000
X003000
X002000
X001000
M30
