G04*
G04 #@! TF.GenerationSoftware,Altium Limited,Altium Designer,21.0.9 (235)*
G04*
G04 Layer_Color=65535*
%FSAX24Y24*%
%MOIN*%
G70*
G04*
G04 #@! TF.SameCoordinates,2375E4FB-4CFA-4F30-9997-1AA3C3FB1F4C*
G04*
G04*
G04 #@! TF.FilePolarity,Positive*
G04*
G01*
G75*
%ADD10C,0.0098*%
%ADD11C,0.0079*%
%ADD12C,0.0070*%
%ADD13C,0.0050*%
%ADD14C,0.0100*%
D10*
X005154Y011029D02*
X005075Y011025D01*
X005102Y010950D01*
X005165Y010998D01*
X001049Y011000D02*
X000975Y011043D01*
Y010957D01*
X001049Y011000D01*
D11*
X005297Y011683D02*
Y012317D01*
X008703Y011683D02*
Y012317D01*
X001197Y011683D02*
Y012317D01*
X004603Y011683D02*
Y012317D01*
D12*
X009320Y012047D02*
Y012213D01*
Y012130D01*
X008903D01*
X008820Y012213D01*
Y012297D01*
X008903Y012380D01*
X009320Y011547D02*
Y011880D01*
X008820D01*
Y011547D01*
X009070Y011880D02*
Y011714D01*
D13*
X000950Y012550D02*
X000750Y012450D01*
X000950Y012350D01*
X000750Y012250D02*
Y012150D01*
Y012200D01*
X001050D01*
X001000Y012250D01*
X000750Y012000D02*
X000800D01*
Y011950D01*
X000750D01*
Y012000D01*
Y011750D02*
Y011650D01*
Y011700D01*
X001050D01*
X001000Y011750D01*
X005050Y013300D02*
X005100Y013350D01*
Y013450D01*
X005050Y013500D01*
X005000D01*
X004950Y013450D01*
Y013350D01*
X004900Y013300D01*
X004850D01*
X004800Y013350D01*
Y013450D01*
X004850Y013500D01*
X004700Y013100D02*
Y013050D01*
X004750Y013000D01*
X005000D01*
Y013150D01*
X004950Y013200D01*
X004850D01*
X004800Y013150D01*
Y013000D01*
Y012900D02*
X005000D01*
Y012750D01*
X004950Y012700D01*
X004800D01*
Y012600D02*
Y012500D01*
Y012550D01*
X005100D01*
Y012600D01*
Y012050D02*
X004800D01*
Y011901D01*
X004850Y011851D01*
X004900D01*
X004950Y011901D01*
Y012050D01*
Y011901D01*
X005000Y011851D01*
X005050D01*
X005100Y011901D01*
Y012050D01*
X005000Y011751D02*
X004850D01*
X004800Y011701D01*
Y011551D01*
X005000D01*
X004800Y011401D02*
X005050D01*
X004950D01*
Y011451D01*
Y011351D01*
Y011401D01*
X005050D01*
X005100Y011351D01*
X004800Y011151D02*
X005050D01*
X004950D01*
Y011201D01*
Y011101D01*
Y011151D01*
X005050D01*
X005100Y011101D01*
X004800Y010801D02*
Y010901D01*
X004850Y010951D01*
X004950D01*
X005000Y010901D01*
Y010801D01*
X004950Y010751D01*
X004900D01*
Y010951D01*
X005000Y010651D02*
X004800D01*
X004900D01*
X004950Y010601D01*
X005000Y010551D01*
Y010501D01*
D14*
X006500Y012300D02*
Y011800D01*
X006600Y011700D01*
X006800D01*
X006900Y011800D01*
Y012300D01*
X007500Y011700D02*
X007100D01*
X007500Y012100D01*
Y012200D01*
X007400Y012300D01*
X007200D01*
X007100Y012200D01*
X002500Y012300D02*
Y011800D01*
X002600Y011700D01*
X002800D01*
X002900Y011800D01*
Y012300D01*
X003100Y011700D02*
X003300D01*
X003200D01*
Y012300D01*
X003100Y012200D01*
M02*
