G04*
G04 #@! TF.GenerationSoftware,Altium Limited,Altium Designer,21.0.9 (235)*
G04*
G04 Layer_Color=16711935*
%FSAX24Y24*%
%MOIN*%
G70*
G04*
G04 #@! TF.SameCoordinates,2375E4FB-4CFA-4F30-9997-1AA3C3FB1F4C*
G04*
G04*
G04 #@! TF.FilePolarity,Negative*
G04*
G01*
G75*
G04:AMPARAMS|DCode=17|XSize=73mil|YSize=78mil|CornerRadius=0mil|HoleSize=0mil|Usage=FLASHONLY|Rotation=0.000|XOffset=0mil|YOffset=0mil|HoleType=Round|Shape=Octagon|*
%AMOCTAGOND17*
4,1,8,-0.0183,0.0390,0.0183,0.0390,0.0365,0.0208,0.0365,-0.0208,0.0183,-0.0390,-0.0183,-0.0390,-0.0365,-0.0208,-0.0365,0.0208,-0.0183,0.0390,0.0*
%
%ADD17OCTAGOND17*%

%ADD24R,0.0651X0.0592*%
%ADD25R,0.0690X0.0631*%
%ADD26C,0.0380*%
D17*
X004000Y014050D02*
D03*
X001030D02*
D03*
Y009950D02*
D03*
X007000D02*
D03*
X008970Y014050D02*
D03*
X006000Y009950D02*
D03*
X005000D02*
D03*
X003000D02*
D03*
X008970D02*
D03*
X002000D02*
D03*
X004000D02*
D03*
X008000D02*
D03*
Y014050D02*
D03*
X007000D02*
D03*
X006000D02*
D03*
X005000D02*
D03*
X003000D02*
D03*
X002000D02*
D03*
D24*
X008955Y012314D02*
D03*
Y011684D02*
D03*
D25*
X001950Y012300D02*
D03*
Y013048D02*
D03*
Y010976D02*
D03*
Y011724D02*
D03*
X004050Y012302D02*
D03*
Y013050D02*
D03*
Y010952D02*
D03*
Y011700D02*
D03*
X008000Y010976D02*
D03*
Y011724D02*
D03*
Y012300D02*
D03*
Y013048D02*
D03*
X007100Y010952D02*
D03*
Y011700D02*
D03*
Y012300D02*
D03*
Y013048D02*
D03*
X003100Y010952D02*
D03*
Y011700D02*
D03*
Y012302D02*
D03*
Y013050D02*
D03*
X005950Y010952D02*
D03*
Y011700D02*
D03*
Y012302D02*
D03*
Y013050D02*
D03*
X005000Y010952D02*
D03*
Y011700D02*
D03*
Y012302D02*
D03*
Y013050D02*
D03*
X001050Y012300D02*
D03*
Y013048D02*
D03*
Y010976D02*
D03*
Y011724D02*
D03*
D26*
X002977Y012023D02*
D03*
X004000Y012000D02*
D03*
X001030Y011960D02*
D03*
X006000Y012000D02*
D03*
X007000D02*
D03*
X008000D02*
D03*
X005000D02*
D03*
X002000Y011970D02*
D03*
M02*
