G04*
G04 #@! TF.GenerationSoftware,Altium Limited,Altium Designer,21.0.9 (235)*
G04*
G04 Layer_Color=8388736*
%FSAX24Y24*%
%MOIN*%
G70*
G04*
G04 #@! TF.SameCoordinates,2375E4FB-4CFA-4F30-9997-1AA3C3FB1F4C*
G04*
G04*
G04 #@! TF.FilePolarity,Negative*
G04*
G01*
G75*
%ADD15R,0.0245X0.0974*%
G04:AMPARAMS|DCode=16|XSize=97.4mil|YSize=24.5mil|CornerRadius=12.3mil|HoleSize=0mil|Usage=FLASHONLY|Rotation=90.000|XOffset=0mil|YOffset=0mil|HoleType=Round|Shape=RoundedRectangle|*
%AMROUNDEDRECTD16*
21,1,0.0974,0.0000,0,0,90.0*
21,1,0.0729,0.0245,0,0,90.0*
1,1,0.0245,0.0000,0.0364*
1,1,0.0245,0.0000,-0.0364*
1,1,0.0245,0.0000,-0.0364*
1,1,0.0245,0.0000,0.0364*
%
%ADD16ROUNDEDRECTD16*%
G04:AMPARAMS|DCode=17|XSize=73mil|YSize=78mil|CornerRadius=0mil|HoleSize=0mil|Usage=FLASHONLY|Rotation=0.000|XOffset=0mil|YOffset=0mil|HoleType=Round|Shape=Octagon|*
%AMOCTAGOND17*
4,1,8,-0.0183,0.0390,0.0183,0.0390,0.0365,0.0208,0.0365,-0.0208,0.0183,-0.0390,-0.0183,-0.0390,-0.0365,-0.0208,-0.0365,0.0208,-0.0183,0.0390,0.0*
%
%ADD17OCTAGOND17*%

D15*
X005500Y011049D02*
D03*
X001400D02*
D03*
D16*
X006000D02*
D03*
X006500D02*
D03*
X007000D02*
D03*
X007500D02*
D03*
X008000D02*
D03*
X008500D02*
D03*
Y012951D02*
D03*
X008000D02*
D03*
X007500D02*
D03*
X007000D02*
D03*
X006500D02*
D03*
X006000D02*
D03*
X005500D02*
D03*
X001900Y011049D02*
D03*
X002400D02*
D03*
X002900D02*
D03*
X003400D02*
D03*
X003900D02*
D03*
X004400D02*
D03*
Y012951D02*
D03*
X003900D02*
D03*
X003400D02*
D03*
X002900D02*
D03*
X002400D02*
D03*
X001900D02*
D03*
X001400D02*
D03*
D17*
X004000Y014050D02*
D03*
X001030D02*
D03*
Y009950D02*
D03*
X007000D02*
D03*
X008970Y014050D02*
D03*
X006000Y009950D02*
D03*
X005000D02*
D03*
X003000D02*
D03*
X008970D02*
D03*
X002000D02*
D03*
X004000D02*
D03*
X008000D02*
D03*
Y014050D02*
D03*
X007000D02*
D03*
X006000D02*
D03*
X005000D02*
D03*
X003000D02*
D03*
X002000D02*
D03*
M02*
