G04*
G04 #@! TF.GenerationSoftware,Altium Limited,Altium Designer,21.0.9 (235)*
G04*
G04 Layer_Physical_Order=1*
G04 Layer_Color=255*
%FSAX24Y24*%
%MOIN*%
G70*
G04*
G04 #@! TF.SameCoordinates,2375E4FB-4CFA-4F30-9997-1AA3C3FB1F4C*
G04*
G04*
G04 #@! TF.FilePolarity,Positive*
G04*
G01*
G75*
%ADD14C,0.0100*%
%ADD15R,0.0245X0.0974*%
G04:AMPARAMS|DCode=16|XSize=97.4mil|YSize=24.5mil|CornerRadius=12.3mil|HoleSize=0mil|Usage=FLASHONLY|Rotation=90.000|XOffset=0mil|YOffset=0mil|HoleType=Round|Shape=RoundedRectangle|*
%AMROUNDEDRECTD16*
21,1,0.0974,0.0000,0,0,90.0*
21,1,0.0729,0.0245,0,0,90.0*
1,1,0.0245,0.0000,0.0364*
1,1,0.0245,0.0000,-0.0364*
1,1,0.0245,0.0000,-0.0364*
1,1,0.0245,0.0000,0.0364*
%
%ADD16ROUNDEDRECTD16*%
G04:AMPARAMS|DCode=18|XSize=65mil|YSize=70mil|CornerRadius=0mil|HoleSize=0mil|Usage=FLASHONLY|Rotation=0.000|XOffset=0mil|YOffset=0mil|HoleType=Round|Shape=Octagon|*
%AMOCTAGOND18*
4,1,8,-0.0163,0.0350,0.0163,0.0350,0.0325,0.0188,0.0325,-0.0188,0.0163,-0.0350,-0.0163,-0.0350,-0.0325,-0.0188,-0.0325,0.0188,-0.0163,0.0350,0.0*
%
%ADD18OCTAGOND18*%

%ADD19C,0.0300*%
D14*
X002505Y012004D02*
X002543Y012042D01*
Y012230D01*
X002900Y012587D01*
X002977Y012023D02*
X003000Y012047D01*
X006505Y012000D02*
Y012053D01*
X007000Y012548D01*
X000750Y010385D02*
Y012500D01*
Y010385D02*
X001000Y010135D01*
X000750Y012500D02*
X001186Y012936D01*
X001030Y011990D02*
X001290Y012250D01*
X001030Y011960D02*
Y011990D01*
X004530Y012280D02*
X005000Y012750D01*
Y013242D01*
X003884Y012280D02*
X004530D01*
X007757Y010507D02*
Y011514D01*
X007000Y010000D02*
X007119Y010119D01*
X007369D01*
X007757Y010507D01*
X007743Y012347D02*
Y013493D01*
X007820Y013570D01*
X008000D01*
X005328D02*
X007820D01*
X005000Y013242D02*
X005328Y013570D01*
X008004D02*
X008570D01*
X009000Y014000D01*
X003000Y012047D02*
Y012226D01*
X003015Y011666D02*
X003280Y011931D01*
X002809Y011666D02*
X003015D01*
X003280Y012030D02*
X003776Y012526D01*
X003280Y011931D02*
Y012030D01*
X003045Y011441D02*
X003884Y012280D01*
X002967Y011441D02*
X003045D01*
X002900Y011374D02*
X002967Y011441D01*
X002900Y011049D02*
Y011374D01*
X005280Y012280D02*
X006193D01*
X005000Y012000D02*
X005280Y012280D01*
X006193D02*
X006500Y012587D01*
X006000Y011886D02*
X006500Y011386D01*
X006000Y011886D02*
Y012000D01*
X002657Y011515D02*
X002809Y011666D01*
X002657Y010343D02*
Y011515D01*
X003400Y011428D02*
X003972Y012000D01*
X004000D01*
X007500Y011049D02*
X007528Y011077D01*
Y011539D02*
X007989Y012000D01*
X007528Y011077D02*
Y011539D01*
X002900Y012587D02*
Y012951D01*
X007000Y012548D02*
Y012951D01*
Y012000D02*
Y012048D01*
Y011250D02*
Y011661D01*
X007116Y011720D02*
X007743Y012347D01*
X007059Y011720D02*
X007116D01*
X007000Y011661D02*
X007059Y011720D01*
X007000Y012048D02*
X007500Y012548D01*
X007989Y012000D02*
X008000D01*
X008500Y012104D02*
Y012951D01*
X007964Y011720D02*
X008116D01*
X007757Y011514D02*
X007964Y011720D01*
X008116D02*
X008500Y012104D01*
X008000Y010000D02*
Y011049D01*
X007500Y012548D02*
Y012951D01*
X005000Y010000D02*
Y010076D01*
X004720Y010356D02*
X005000Y010076D01*
X004720Y010356D02*
Y012171D01*
X005500Y012951D01*
X006500Y012587D02*
Y012951D01*
Y011049D02*
Y011386D01*
X006000Y010000D02*
Y011049D01*
X002000Y011970D02*
X002038Y011932D01*
X002063Y012250D02*
X002400Y012587D01*
X001290Y012250D02*
X002063D01*
X002038Y011775D02*
Y011932D01*
Y011775D02*
X002400Y011413D01*
Y011049D02*
Y011413D01*
X002657Y010343D02*
X003000Y010000D01*
X008000Y011049D02*
X008500D01*
X005500D02*
X006000D01*
X008000Y012951D02*
X008500D01*
X005500D02*
X006000D01*
X002400Y012587D02*
Y012951D01*
X001186Y012936D02*
X001385D01*
X001400Y012951D01*
X001900D01*
X003288Y012514D02*
X003400Y012626D01*
X003288Y012514D02*
X003288D01*
X003000Y012226D02*
X003288Y012514D01*
X003400Y012626D02*
Y012951D01*
X003776Y012526D02*
X003799D01*
X003900Y012626D01*
X001000Y010000D02*
Y010135D01*
X003900Y012951D02*
X004400D01*
X004000Y010000D02*
X004400Y010400D01*
Y011049D01*
X001928Y010072D02*
X002000Y010000D01*
X001928Y010072D02*
Y011021D01*
X001900Y011049D02*
X001928Y011021D01*
X003900Y010802D02*
X003967Y010734D01*
X003900Y010802D02*
Y011049D01*
X001400D02*
X001900D01*
X003900D02*
X004400D01*
D15*
X005500D02*
D03*
X001400D02*
D03*
D16*
X006000D02*
D03*
X006500D02*
D03*
X007000D02*
D03*
X007500D02*
D03*
X008000D02*
D03*
X008500D02*
D03*
Y012951D02*
D03*
X008000D02*
D03*
X007500D02*
D03*
X007000D02*
D03*
X006500D02*
D03*
X006000D02*
D03*
X005500D02*
D03*
X001900Y011049D02*
D03*
X002400D02*
D03*
X002900D02*
D03*
X003400D02*
D03*
X003900D02*
D03*
X004400D02*
D03*
Y012951D02*
D03*
X003900D02*
D03*
X003400D02*
D03*
X002900D02*
D03*
X002400D02*
D03*
X001900D02*
D03*
X001400D02*
D03*
D18*
X004000Y014050D02*
D03*
X001030D02*
D03*
Y009950D02*
D03*
X007000D02*
D03*
X008970Y014050D02*
D03*
X006000Y009950D02*
D03*
X005000D02*
D03*
X003000D02*
D03*
X008970D02*
D03*
X002000D02*
D03*
X004000D02*
D03*
X008000D02*
D03*
Y014050D02*
D03*
X007000D02*
D03*
X006000D02*
D03*
X005000D02*
D03*
X003000D02*
D03*
X002000D02*
D03*
D19*
X002505Y012004D02*
D03*
X002977Y012023D02*
D03*
X004000Y012000D02*
D03*
X006505Y012000D02*
D03*
X001030Y011960D02*
D03*
X006000Y012000D02*
D03*
X007000D02*
D03*
X008000D02*
D03*
X005000D02*
D03*
X002000Y011970D02*
D03*
M02*
