G04*
G04 #@! TF.GenerationSoftware,Altium Limited,Altium Designer,21.0.9 (235)*
G04*
G04 Layer_Physical_Order=2*
G04 Layer_Color=16711680*
%FSAX24Y24*%
%MOIN*%
G70*
G04*
G04 #@! TF.SameCoordinates,2375E4FB-4CFA-4F30-9997-1AA3C3FB1F4C*
G04*
G04*
G04 #@! TF.FilePolarity,Positive*
G04*
G01*
G75*
%ADD14C,0.0100*%
G04:AMPARAMS|DCode=18|XSize=65mil|YSize=70mil|CornerRadius=0mil|HoleSize=0mil|Usage=FLASHONLY|Rotation=0.000|XOffset=0mil|YOffset=0mil|HoleType=Round|Shape=Octagon|*
%AMOCTAGOND18*
4,1,8,-0.0163,0.0350,0.0163,0.0350,0.0325,0.0188,0.0325,-0.0188,0.0163,-0.0350,-0.0163,-0.0350,-0.0325,-0.0188,-0.0325,0.0188,-0.0163,0.0350,0.0*
%
%ADD18OCTAGOND18*%

%ADD19C,0.0300*%
%ADD20R,0.0571X0.0512*%
%ADD21R,0.0610X0.0551*%
%ADD22C,0.0200*%
%ADD23C,0.0250*%
D14*
X002500Y011999D02*
X002505Y012004D01*
X002500Y010988D02*
Y011999D01*
X002976Y012019D02*
X002977Y012019D01*
X002997Y012003D02*
Y012320D01*
X002977Y012019D02*
Y012023D01*
X002924Y012399D02*
X003000Y012474D01*
X002997Y012320D02*
X003000Y012323D01*
X002976Y011524D02*
Y012019D01*
X002924Y012399D02*
X003000Y012323D01*
X002976Y011524D02*
X003000Y011500D01*
X004000Y011538D02*
Y012000D01*
Y013026D02*
Y014000D01*
Y011500D02*
X004019Y011519D01*
X004000Y011538D02*
X004019Y011519D01*
X004000Y011873D02*
Y011987D01*
X006500Y011995D02*
X006505Y012000D01*
X006500Y010988D02*
Y011995D01*
X001000Y013026D02*
Y014000D01*
X001030Y011556D02*
Y011960D01*
Y011530D02*
Y011556D01*
X001050Y011526D02*
X001080Y011556D01*
X008000Y010988D02*
X008020D01*
X009000Y010000D02*
Y010008D01*
X008000Y012000D02*
Y012500D01*
Y011500D02*
Y012000D01*
X007000D02*
Y012500D01*
Y011500D02*
Y012000D01*
X005000D02*
Y012474D01*
Y011500D02*
Y012000D01*
X006000Y011500D02*
Y012500D01*
X002000Y011500D02*
Y011987D01*
Y012474D01*
X004000Y011987D02*
Y012474D01*
X008000Y013051D02*
Y014000D01*
X007000Y013051D02*
Y014000D01*
X006000Y013051D02*
Y014000D01*
X005000Y013026D02*
Y014000D01*
X003000Y013026D02*
Y014000D01*
X002000Y013026D02*
Y014000D01*
X001000Y011960D02*
Y012474D01*
D18*
X004000Y014050D02*
D03*
X001030D02*
D03*
Y009950D02*
D03*
X007000D02*
D03*
X008970Y014050D02*
D03*
X006000Y009950D02*
D03*
X005000D02*
D03*
X003000D02*
D03*
X008970D02*
D03*
X002000D02*
D03*
X004000D02*
D03*
X008000D02*
D03*
Y014050D02*
D03*
X007000D02*
D03*
X006000D02*
D03*
X005000D02*
D03*
X003000D02*
D03*
X002000D02*
D03*
D19*
X002505Y012004D02*
D03*
X002977Y012023D02*
D03*
X004000Y012000D02*
D03*
X006505Y012000D02*
D03*
X001030Y011960D02*
D03*
X006000Y012000D02*
D03*
X007000D02*
D03*
X008000D02*
D03*
X005000D02*
D03*
X002000Y011970D02*
D03*
D20*
X008955Y012314D02*
D03*
Y011684D02*
D03*
D21*
X001950Y012300D02*
D03*
Y013048D02*
D03*
Y010976D02*
D03*
Y011724D02*
D03*
X004050Y012302D02*
D03*
Y013050D02*
D03*
Y010952D02*
D03*
Y011700D02*
D03*
X008000Y010976D02*
D03*
Y011724D02*
D03*
Y012300D02*
D03*
Y013048D02*
D03*
X007100Y010952D02*
D03*
Y011700D02*
D03*
Y012300D02*
D03*
Y013048D02*
D03*
X003100Y010952D02*
D03*
Y011700D02*
D03*
Y012302D02*
D03*
Y013050D02*
D03*
X005950Y010952D02*
D03*
Y011700D02*
D03*
Y012302D02*
D03*
Y013050D02*
D03*
X005000Y010952D02*
D03*
Y011700D02*
D03*
Y012302D02*
D03*
Y013050D02*
D03*
X001050Y012300D02*
D03*
Y013048D02*
D03*
Y010976D02*
D03*
Y011724D02*
D03*
D22*
X008963Y010045D02*
X009000Y010008D01*
X008020Y010988D02*
X008963Y010045D01*
X001000Y010988D02*
X002500D01*
X006000D02*
X006500D01*
X008000D01*
X002500D02*
X005976D01*
D23*
X008963Y010045D02*
Y011676D01*
Y010037D02*
Y010045D01*
Y010037D02*
X009000Y010000D01*
X008955Y011684D02*
X008963Y011676D01*
Y013963D02*
X009000Y014000D01*
X008963Y012321D02*
Y013963D01*
X008955Y012314D02*
X008963Y012321D01*
M02*
