G04*
G04 #@! TF.GenerationSoftware,Altium Limited,Altium Designer,21.6.1 (37)*
G04*
G04 Layer_Color=8388736*
%FSAX24Y24*%
%MOIN*%
G70*
G04*
G04 #@! TF.SameCoordinates,EEEF0BCC-54E9-4042-996D-5715DE35526B*
G04*
G04*
G04 #@! TF.FilePolarity,Negative*
G04*
G01*
G75*
%ADD13R,0.0453X0.0472*%
%ADD14R,0.0492X0.0453*%
%ADD15R,0.0413X0.0472*%
%ADD16R,0.0315X0.0315*%
%ADD17R,0.0177X0.0374*%
%ADD18R,0.0630X0.0591*%
G04:AMPARAMS|DCode=19|XSize=70.9mil|YSize=75.9mil|CornerRadius=0mil|HoleSize=0mil|Usage=FLASHONLY|Rotation=0.000|XOffset=0mil|YOffset=0mil|HoleType=Round|Shape=Octagon|*
%AMOCTAGOND19*
4,1,8,-0.0177,0.0380,0.0177,0.0380,0.0355,0.0202,0.0355,-0.0202,0.0177,-0.0380,-0.0177,-0.0380,-0.0355,-0.0202,-0.0355,0.0202,-0.0177,0.0380,0.0*
%
%ADD19OCTAGOND19*%

%ADD20C,0.0279*%
D13*
X012800Y017095D02*
D03*
Y016505D02*
D03*
X013400Y017095D02*
D03*
Y016505D02*
D03*
D14*
X011100Y015955D02*
D03*
Y016506D02*
D03*
X014005Y015885D02*
D03*
Y016436D02*
D03*
D15*
X011651Y015878D02*
D03*
X012222D02*
D03*
X012728Y015887D02*
D03*
X013299D02*
D03*
D16*
X011100Y017545D02*
D03*
Y016955D02*
D03*
X014000Y017545D02*
D03*
Y016955D02*
D03*
D17*
X011705Y016429D02*
D03*
X011902D02*
D03*
X012098D02*
D03*
X012295D02*
D03*
Y017571D02*
D03*
X012098D02*
D03*
X011902D02*
D03*
X011705D02*
D03*
D18*
X012000Y017000D02*
D03*
D19*
X011030Y018300D02*
D03*
X012000D02*
D03*
X013970D02*
D03*
X011030Y015200D02*
D03*
X013000D02*
D03*
X013970D02*
D03*
X012000D02*
D03*
X013000Y018300D02*
D03*
D20*
X012100Y017100D02*
D03*
Y016910D02*
D03*
X011900Y017100D02*
D03*
Y016910D02*
D03*
M02*
