G04*
G04 #@! TF.GenerationSoftware,Altium Limited,Altium Designer,21.6.1 (37)*
G04*
G04 Layer_Color=65535*
%FSAX24Y24*%
%MOIN*%
G70*
G04*
G04 #@! TF.SameCoordinates,EEEF0BCC-54E9-4042-996D-5715DE35526B*
G04*
G04*
G04 #@! TF.FilePolarity,Positive*
G04*
G01*
G75*
%ADD10C,0.0098*%
%ADD11C,0.0070*%
%ADD12C,0.0040*%
D10*
X011498Y016272D02*
G03*
X011498Y016272I-000049J000000D01*
G01*
D11*
X013076Y017854D02*
X012926D01*
X013001D01*
Y017479D01*
X012926Y017404D01*
X012851D01*
X012776Y017479D01*
X013526Y017854D02*
X013226D01*
Y017404D01*
X013526D01*
X013226Y017629D02*
X013376D01*
D12*
X010655Y016173D02*
X010622Y016140D01*
Y016073D01*
X010655Y016040D01*
X010688D01*
X010722Y016073D01*
Y016140D01*
X010755Y016173D01*
X010788D01*
X010822Y016140D01*
Y016073D01*
X010788Y016040D01*
X010622Y016240D02*
X010822D01*
X010755Y016307D01*
X010822Y016373D01*
X010622D01*
Y016773D02*
X010822D01*
Y016673D01*
X010788Y016640D01*
X010722D01*
X010688Y016673D01*
Y016773D01*
Y016840D02*
X010822D01*
X010755D01*
X010722Y016873D01*
X010688Y016906D01*
Y016940D01*
X010822Y017040D02*
Y017106D01*
Y017073D01*
X010688D01*
Y017040D01*
Y017206D02*
X010822Y017273D01*
X010688Y017340D01*
X010822Y017506D02*
Y017439D01*
X010788Y017406D01*
X010722D01*
X010688Y017439D01*
Y017506D01*
X010722Y017539D01*
X010755D01*
Y017406D01*
X010688Y017606D02*
X010822D01*
X010755D01*
X010722Y017639D01*
X010688Y017673D01*
Y017706D01*
M02*
