G04*
G04 #@! TF.GenerationSoftware,Altium Limited,Altium Designer,21.6.1 (37)*
G04*
G04 Layer_Physical_Order=2*
G04 Layer_Color=16711680*
%FSAX24Y24*%
%MOIN*%
G70*
G04*
G04 #@! TF.SameCoordinates,EEEF0BCC-54E9-4042-996D-5715DE35526B*
G04*
G04*
G04 #@! TF.FilePolarity,Positive*
G04*
G01*
G75*
%ADD26C,0.0250*%
%ADD28C,0.0100*%
G04:AMPARAMS|DCode=31|XSize=65mil|YSize=70mil|CornerRadius=0mil|HoleSize=0mil|Usage=FLASHONLY|Rotation=0.000|XOffset=0mil|YOffset=0mil|HoleType=Round|Shape=Octagon|*
%AMOCTAGOND31*
4,1,8,-0.0163,0.0350,0.0163,0.0350,0.0325,0.0188,0.0325,-0.0188,0.0163,-0.0350,-0.0163,-0.0350,-0.0325,-0.0188,-0.0325,0.0188,-0.0163,0.0350,0.0*
%
%ADD31OCTAGOND31*%

%ADD32C,0.0280*%
%ADD33C,0.0220*%
G36*
X011679Y018647D02*
X011698Y018601D01*
X011615Y018518D01*
Y018082D01*
X011808Y017890D01*
X012192D01*
X012385Y018082D01*
Y018518D01*
X012302Y018601D01*
X012321Y018647D01*
X012679Y018647D01*
X012698Y018601D01*
X012615Y018518D01*
Y018082D01*
X012808Y017890D01*
X013192D01*
X013385Y018082D01*
Y018518D01*
X013302Y018601D01*
X013321Y018647D01*
X013649D01*
X013668Y018601D01*
X013585Y018518D01*
Y018157D01*
X013217Y017789D01*
X012667D01*
X012640Y017800D01*
X012560D01*
X012487Y017770D01*
X012430Y017713D01*
X012400Y017640D01*
Y017560D01*
X012430Y017487D01*
X012487Y017430D01*
X012560Y017400D01*
X012640D01*
X012667Y017411D01*
X013295D01*
X013367Y017426D01*
X013428Y017467D01*
X013736Y017775D01*
X013783Y017755D01*
Y017150D01*
X014100D01*
X014250Y017000D01*
X014251Y017001D01*
X014297Y016982D01*
X014297Y014963D01*
X014187Y014853D01*
X012321D01*
X012302Y014899D01*
X012385Y014983D01*
Y015417D01*
X012192Y015610D01*
X011808D01*
X011615Y015417D01*
Y014983D01*
X011698Y014899D01*
X011679Y014853D01*
X011351D01*
X011332Y014899D01*
X011415Y014983D01*
Y015417D01*
X011222Y015610D01*
X010838D01*
X010749Y015522D01*
X010703Y015541D01*
X010703Y017959D01*
X010749Y017978D01*
X010838Y017890D01*
X011222D01*
X011415Y018082D01*
Y018518D01*
X011332Y018601D01*
X011351Y018647D01*
X011679D01*
D02*
G37*
D26*
X013295Y017600D02*
X013945Y018250D01*
X012600Y017600D02*
X013295D01*
D28*
X013945Y018250D02*
X014000D01*
D31*
X011030Y018300D02*
D03*
X012000D02*
D03*
X013970D02*
D03*
X011030Y015200D02*
D03*
X013000D02*
D03*
X013970D02*
D03*
X012000D02*
D03*
X013000Y018300D02*
D03*
D32*
X012600Y017600D02*
D03*
D33*
X012100Y017100D02*
D03*
Y016910D02*
D03*
X011900Y017100D02*
D03*
Y016910D02*
D03*
M02*
