G04*
G04 #@! TF.GenerationSoftware,Altium Limited,Altium Designer,21.6.1 (37)*
G04*
G04 Layer_Physical_Order=1*
G04 Layer_Color=255*
%FSAX24Y24*%
%MOIN*%
G70*
G04*
G04 #@! TF.SameCoordinates,EEEF0BCC-54E9-4042-996D-5715DE35526B*
G04*
G04*
G04 #@! TF.FilePolarity,Positive*
G04*
G01*
G75*
%ADD16R,0.0315X0.0315*%
%ADD21R,0.0394X0.0413*%
%ADD22R,0.0433X0.0394*%
%ADD23R,0.0354X0.0413*%
%ADD24R,0.0118X0.0315*%
%ADD25R,0.0571X0.0531*%
%ADD26C,0.0250*%
%ADD27C,0.0150*%
%ADD28C,0.0100*%
%ADD29C,0.0120*%
%ADD30C,0.0200*%
G04:AMPARAMS|DCode=31|XSize=65mil|YSize=70mil|CornerRadius=0mil|HoleSize=0mil|Usage=FLASHONLY|Rotation=0.000|XOffset=0mil|YOffset=0mil|HoleType=Round|Shape=Octagon|*
%AMOCTAGOND31*
4,1,8,-0.0163,0.0350,0.0163,0.0350,0.0325,0.0188,0.0325,-0.0188,0.0163,-0.0350,-0.0163,-0.0350,-0.0325,-0.0188,-0.0325,0.0188,-0.0163,0.0350,0.0*
%
%ADD31OCTAGOND31*%

%ADD32C,0.0280*%
%ADD33C,0.0220*%
G36*
X012300Y017013D02*
X012345Y016994D01*
X012543D01*
Y016829D01*
X013057D01*
Y016829D01*
X013143D01*
Y016829D01*
X013657D01*
X013711Y016829D01*
X013725Y016816D01*
X013728Y016693D01*
X013728D01*
X013728Y016693D01*
Y016180D01*
X014197D01*
X014297Y016086D01*
Y014963D01*
X014187Y014853D01*
X012386D01*
X012348Y014945D01*
X012385Y014983D01*
Y015341D01*
X012588Y015544D01*
X012588Y015544D01*
X012612Y015580D01*
X012620Y015620D01*
X012620Y015620D01*
X012966D01*
Y016154D01*
X012672D01*
X012532Y016294D01*
X012496Y016318D01*
X012459Y016325D01*
X012414Y016370D01*
Y016647D01*
X012176D01*
Y016212D01*
X012256D01*
X012332Y016135D01*
X012332Y016135D01*
X012369Y016111D01*
X012405Y016104D01*
X012489Y016019D01*
Y016014D01*
X012489Y016014D01*
X012491Y016003D01*
Y015808D01*
X012430Y015747D01*
X012405Y015710D01*
X012400Y015683D01*
X012127Y015675D01*
X012127Y015675D01*
X012100Y015610D01*
X011988D01*
X011888Y015611D01*
X011888Y015657D01*
Y015986D01*
X011981Y016079D01*
X011981Y016079D01*
X012005Y016115D01*
X012014Y016158D01*
Y016212D01*
X012021D01*
Y016647D01*
X011700D01*
Y017059D01*
X012280D01*
X012300Y017013D01*
D02*
G37*
G36*
X013649Y018647D02*
X013668Y018601D01*
X013585Y018518D01*
Y018082D01*
X013778Y017890D01*
X013783D01*
Y017328D01*
Y017059D01*
X012345Y017059D01*
Y017303D01*
X012345Y017326D01*
X012384Y017353D01*
X012414D01*
Y017432D01*
X012464Y017453D01*
X012487Y017430D01*
X012560Y017400D01*
X012640D01*
X012713Y017430D01*
X012770Y017487D01*
X012800Y017560D01*
Y017640D01*
X012770Y017713D01*
X012713Y017770D01*
X012640Y017800D01*
X012560D01*
X012487Y017770D01*
X012464Y017747D01*
X012414Y017768D01*
Y017788D01*
X012176D01*
Y017376D01*
X012176Y017353D01*
X012138Y017326D01*
X012059D01*
X012021Y017353D01*
Y017554D01*
X012024Y017571D01*
Y017890D01*
X012192D01*
X012385Y018082D01*
Y018518D01*
X012302Y018601D01*
X012321Y018647D01*
X013649Y018647D01*
D02*
G37*
D16*
X011100Y017545D02*
D03*
Y016955D02*
D03*
X014000Y017545D02*
D03*
Y016955D02*
D03*
D21*
X012800Y017095D02*
D03*
Y016505D02*
D03*
X013400Y017095D02*
D03*
Y016505D02*
D03*
D22*
X011100Y015955D02*
D03*
Y016506D02*
D03*
X014005Y015885D02*
D03*
Y016436D02*
D03*
D23*
X011651Y015878D02*
D03*
X012222D02*
D03*
X012728Y015887D02*
D03*
X013299D02*
D03*
D24*
X011705Y016429D02*
D03*
X011902D02*
D03*
X012098D02*
D03*
X012295D02*
D03*
Y017571D02*
D03*
X012098D02*
D03*
X011902D02*
D03*
X011705D02*
D03*
D25*
X012000Y017000D02*
D03*
D26*
X011000Y018250D02*
X011902D01*
X011068Y017578D02*
Y018182D01*
Y017578D02*
X011100Y017545D01*
X011000Y018250D02*
X011068Y018182D01*
X011100Y016506D02*
Y016955D01*
X014002Y016439D02*
X014005Y016436D01*
X014002Y016439D02*
Y016952D01*
X014000Y016955D02*
X014002Y016952D01*
D27*
X011790Y016809D02*
X011885Y016905D01*
X011481Y016613D02*
X011677Y016809D01*
X011790D01*
X011481Y016283D02*
Y016613D01*
X011900Y016900D02*
X012000Y017000D01*
X011880Y016900D02*
X011900D01*
X011100Y015955D02*
X011222Y016077D01*
X011275D01*
X011481Y016283D01*
X011053Y015250D02*
X011651Y015848D01*
X011000Y015250D02*
X011053D01*
X011651Y015848D02*
Y015878D01*
D28*
X012000Y015250D02*
X012135D01*
X012509Y015623D01*
Y015667D01*
X012572Y015730D02*
X012601D01*
X012728Y015857D01*
X012509Y015667D02*
X012572Y015730D01*
X012728Y015857D02*
Y015887D01*
X012601Y016014D02*
X012728Y015887D01*
X012295Y017571D02*
Y017591D01*
X012304Y017600D01*
X012975Y018250D02*
X013000D01*
X012098Y017571D02*
X012107Y017580D01*
X011902Y018152D02*
X012000Y018250D01*
X012098Y016001D02*
X012222Y015878D01*
X012601Y016014D02*
Y016066D01*
X012295Y016331D02*
Y016429D01*
Y016331D02*
X012412Y016214D01*
X012453D01*
X012601Y016066D01*
X011651Y015907D02*
X011902Y016158D01*
X011902Y016429D02*
X011902Y016429D01*
Y016158D02*
Y016429D01*
X011651Y015878D02*
Y015907D01*
D29*
X012304Y017600D02*
X012600D01*
X011902Y017571D02*
Y018152D01*
D30*
X013985Y018235D02*
X014000Y018250D01*
X013985Y017560D02*
X014000Y017545D01*
X013985Y017560D02*
Y018235D01*
D31*
X011030Y018300D02*
D03*
X012000D02*
D03*
X013970D02*
D03*
X011030Y015200D02*
D03*
X013000D02*
D03*
X013970D02*
D03*
X012000D02*
D03*
X013000Y018300D02*
D03*
D32*
X012600Y017600D02*
D03*
D33*
X012100Y017100D02*
D03*
Y016910D02*
D03*
X011900Y017100D02*
D03*
Y016910D02*
D03*
M02*
